<?xml version="1.0" encoding="UTF-8" standalone="no"?>
<svg
   xmlns:dc="http://purl.org/dc/elements/1.1/"
   xmlns:cc="http://creativecommons.org/ns#"
   xmlns:rdf="http://www.w3.org/1999/02/22-rdf-syntax-ns#"
   xmlns:svg="http://www.w3.org/2000/svg"
   xmlns="http://www.w3.org/2000/svg"
   xmlns:sodipodi="http://sodipodi.sourceforge.net/DTD/sodipodi-0.dtd"
   xmlns:inkscape="http://www.inkscape.org/namespaces/inkscape"
   height="210"
   version="1.1"
   viewBox="0 0 540 210"
   width="540"
   xml:space="preserve"
   id="svg14"
   sodipodi:docname="amazon.svg"
   inkscape:version="0.92.2 (5c3e80d, 2017-08-06)"><metadata
     id="metadata20"><rdf:RDF><cc:Work
         rdf:about=""><dc:format>image/svg+xml</dc:format><dc:type
           rdf:resource="http://purl.org/dc/dcmitype/StillImage" /><dc:title></dc:title></cc:Work></rdf:RDF></metadata><defs
     id="defs18" /><sodipodi:namedview
     pagecolor="#ffffff"
     bordercolor="#666666"
     borderopacity="1"
     objecttolerance="10"
     gridtolerance="10"
     guidetolerance="10"
     inkscape:pageopacity="0"
     inkscape:pageshadow="2"
     inkscape:window-width="724"
     inkscape:window-height="480"
     id="namedview16"
     showgrid="false"
     inkscape:zoom="0.40120419"
     inkscape:cx="262.05373"
     inkscape:cy="256"
     inkscape:window-x="253"
     inkscape:window-y="169"
     inkscape:window-maximized="0"
     inkscape:current-layer="svg14" /><g
     id="形状_4_2_"
     style="enable-background:new"
     transform="translate(14.540431,-146.67408)"><g
       id="形状_4_1_"><g
         id="g10"><g
           id="g3720"><g
             style="enable-background:new"
             id="形状_4_3_"><g
               id="形状_4"><g
                 id="g4"><path
                   inkscape:connector-curvature="0"
                   id="path2"
                   style="clip-rule:evenodd;fill:#080404;fill-rule:evenodd"
                   d="m 342.951,247.745 c -8.171,-4.596 -17.69,-5.941 -26.687,-5.731 l 24.238,-34.603 c 2.244,-3.111 3.511,-5.072 3.521,-6.572 l 0.004,-8.956 c -0.004,-1.546 -1.202,-2.635 -2.699,-2.638 l -46.794,0.006 c -1.441,-0.003 -2.637,1.057 -2.646,2.644 v 10.441 c 0.012,1.562 1.21,2.629 2.705,2.629 l 24.449,0.003 -28.08,40.285 c -1.711,2.586 -1.741,5.483 -1.741,7.176 v 10.591 c 0,1.534 1.701,3.288 3.331,2.419 15.925,-8.46 35.037,-7.637 49.441,-0.091 1.763,0.922 3.443,-0.854 3.443,-2.387 v -11.139 c -0.144,-1.506 -0.638,-3.041 -2.485,-4.077 z M 180.164,187.902 c -8.372,0 -16.213,4.305 -19.666,13.529 -3.987,-9.225 -9.568,-13.529 -18.472,-13.529 -8.769,0 -15.281,4.305 -18.736,13.529 h -0.266 v -9.537 c -0.089,-1.333 -1.202,-2.384 -2.588,-2.454 l -13.257,0.003 c -1.519,0 -2.749,1.17 -2.749,2.632 l -0.009,73.063 c 0.109,1.299 1.192,2.314 2.546,2.404 h 14.236 c 1.516,0 2.748,-1.173 2.745,-2.629 l 0.006,-38.727 c 0,-8.457 -0.4,-20.142 9.834,-20.142 10.098,0 8.77,11.994 8.77,20.142 l 0.013,38.729 c 0,1.403 1.126,2.533 2.555,2.626 h 14.22 c 1.514,0 2.744,-1.173 2.744,-2.629 v -38.727 c 0,-4.153 -0.134,-10.302 1.33,-13.993 1.462,-3.688 5.05,-5.994 8.505,-5.994 4.119,0 7.309,1.384 8.371,6.304 0.666,2.921 0.398,10.607 0.398,13.684 l 0.003,38.729 c 0,1.403 1.128,2.533 2.557,2.626 h 14.219 c 1.516,0 2.746,-1.173 2.746,-2.629 l 0.012,-46.107 c 0,-7.844 0.93,-16.759 -3.591,-22.907 -3.985,-5.536 -10.496,-7.996 -16.476,-7.996 z m 204.144,0 c -20.597,0 -32.024,17.682 -32.024,40.435 0,22.604 11.297,40.746 32.024,40.746 19.934,0 32.555,-17.684 32.555,-39.976 -10e-4,-23.062 -11.425,-41.205 -32.555,-41.205 z m 0,66.112 c -11.159,0 -11.028,-19.064 -11.028,-27.982 0,-8.918 0.662,-23.214 11.162,-23.214 4.515,0 7.707,1.999 9.3,7.071 1.862,5.842 2.128,13.222 2.128,19.373 -10e-4,9.376 -0.529,24.752 -11.562,24.752 z m 97.942,-57.499 c -3.986,-6.304 -10.231,-8.612 -16.613,-8.612 -9.831,0 -15.411,4.769 -19.395,14.761 h -0.271 V 191.49 c -0.26,-1.135 -1.283,-1.987 -2.527,-2.049 l -13.204,0.003 c -1.436,0 -2.614,1.051 -2.737,2.384 l 0.023,73.089 c 0,1.403 1.126,2.533 2.557,2.626 h 14.182 c 1.518,0 2.749,-1.173 2.772,-2.629 V 225.57 c 0,-4.92 0.266,-9.379 2.262,-13.838 1.593,-3.534 4.779,-5.842 8.235,-5.842 9.837,0 8.905,11.684 8.905,19.68 v 39.673 c 0.152,1.243 1.218,2.215 2.536,2.299 h 14.271 c 1.406,0 2.567,-1.004 2.73,-2.299 v -45.977 c 0,-7.073 0,-16.91 -3.726,-22.751 z m -207.686,44.449 v -22.179 c 0,-9.398 0.666,-18.031 -6.26,-24.5 -5.459,-5.238 -14.515,-7.089 -21.44,-7.089 -13.547,0 -28.664,5.058 -31.835,21.796 -0.336,1.78 0.96,2.714 2.125,2.977 l 13.797,1.494 c 1.291,-0.067 2.225,-1.337 2.473,-2.617 1.187,-5.767 6.013,-8.551 11.441,-8.551 2.931,0 6.26,1.08 7.992,3.7 1.996,2.927 1.731,6.934 1.731,10.324 v 1.848 c -8.257,0.925 -19.044,1.541 -26.768,4.932 -8.922,3.852 -15.18,11.708 -15.18,23.267 0,14.789 9.322,22.187 21.307,22.187 10.122,0 15.655,-2.387 23.471,-10.348 2.583,3.741 3.431,5.557 8.158,9.487 1.063,0.571 2.42,0.511 3.364,-0.333 l 0.032,0.032 c 2.842,-2.53 8.009,-7.016 10.918,-9.455 1.16,-0.945 0.955,-2.486 0.047,-3.782 -2.602,-3.595 -5.373,-6.519 -5.373,-13.19 z m -22.639,6.787 c -2.265,4.01 -5.86,6.47 -9.854,6.47 -5.461,0 -8.657,-4.161 -8.657,-10.321 0,-12.122 10.875,-14.331 21.175,-14.331 v 3.084 c 0,5.547 0.131,10.166 -2.664,15.098 z M 87.947,240.964 v -22.179 c 0,-9.398 0.666,-18.031 -6.258,-24.5 -5.461,-5.238 -14.517,-7.089 -21.441,-7.089 -13.547,0 -28.664,5.058 -31.834,21.796 -0.337,1.78 0.958,2.714 2.124,2.977 l 13.797,1.494 c 1.291,-0.067 2.227,-1.337 2.473,-2.617 1.185,-5.767 6.013,-8.551 11.442,-8.551 2.928,0 6.258,1.08 7.991,3.7 1.996,2.927 1.73,6.934 1.73,10.324 v 1.848 c -8.257,0.925 -19.044,1.541 -26.769,4.932 -8.921,3.852 -15.18,11.708 -15.18,23.267 0,14.789 9.32,22.187 21.307,22.187 10.12,0 15.656,-2.387 23.469,-10.348 2.585,3.741 3.432,5.557 8.161,9.487 1.061,0.571 2.42,0.511 3.363,-0.333 l 0.033,0.032 c 2.841,-2.53 8.011,-7.016 10.917,-9.455 1.158,-0.945 0.954,-2.486 0.047,-3.782 -2.601,-3.595 -5.372,-6.519 -5.372,-13.19 z m -22.639,6.787 c -2.263,4.01 -5.86,6.47 -9.854,6.47 -5.458,0 -8.655,-4.161 -8.655,-10.321 0,-12.122 10.876,-14.331 21.174,-14.331 v 3.084 c 0,5.547 0.132,10.166 -2.665,15.098 z" /></g></g></g><path
             inkscape:connector-curvature="0"
             id="path8"
             style="clip-rule:evenodd;fill:#f2941b;fill-rule:evenodd"
             d="m 307.486,289.35 c -29.959,12.709 -62.519,18.852 -92.138,18.852 -43.908,0 -86.42,-12.043 -120.796,-32.048 -3.007,-1.75 -5.24,1.34 -2.739,3.596 31.865,28.773 73.968,46.055 120.728,46.055 33.36,0 72.106,-10.491 98.83,-30.212 4.421,-3.264 0.635,-8.16 -3.885,-6.243 z m 26.408,-15.161 c -2.913,-3.592 -27.977,-6.697 -43.272,4.048 -2.352,1.654 -1.947,3.928 0.66,3.616 8.615,-1.027 27.793,-3.333 31.211,1.044 3.421,4.377 -3.803,22.415 -7.025,30.472 -0.978,2.434 1.119,3.42 3.325,1.576 14.336,-11.997 18.039,-37.122 15.101,-40.756 z" /></g></g></g></g></svg>